<svg width="180" height="180" viewBox="0 0 180 180" fill="none" xmlns="http://www.w3.org/2000/svg">
<rect width="180" height="180" rx="8" fill="#1B212F"/>
<path d="M86.982 129C86.222 129 85.576 128.772 85.044 128.316C84.588 127.784 84.36 127.138 84.36 126.378V59.346H62.472C61.712 59.346 61.066 59.118 60.534 58.662C60.078 58.13 59.85 57.484 59.85 56.724V51.936C59.85 51.1 60.078 50.454 60.534 49.998C61.066 49.466 61.712 49.2 62.472 49.2H117.42C118.256 49.2 118.902 49.466 119.358 49.998C119.89 50.454 120.156 51.1 120.156 51.936V56.724C120.156 57.484 119.89 58.13 119.358 58.662C118.902 59.118 118.256 59.346 117.42 59.346H95.646V126.378C95.646 127.138 95.38 127.784 94.848 128.316C94.392 128.772 93.746 129 92.91 129H86.982Z" fill="white"/>
</svg>
