<svg width="180" height="180" viewBox="0 0 180 180" fill="none" xmlns="http://www.w3.org/2000/svg">
  <rect width="180" height="180" rx="36" fill="#080810"/>
  <rect x="1" y="1" width="178" height="178" rx="35" fill="none" stroke="#fd7e14" stroke-opacity="0.35" stroke-width="2"/>
  <g transform="translate(18 57.9) scale(0.13771)" fill="#fd7e14">
    <path d="M487.6,18.8l-159.9-0.5l-24.5,45.6l-48.5,86.5L184,19H26l229.4,428.7l127.7-236l14.3-26.5c0,0,0,0,0,0L487.6,18.8z M362.5,172.6l-3.8,7.1v0L255.6,370.3L87.2,55.7h74.9l60.3,112.1l31.6,58.8l32.7-58.2l63.2-112.6l74.3,0.2l-55.3,104.9c0,0,0,0,0.1,0.1l-2.4,4.5L362.5,172.6z"/>
    <path d="M627.2,18.3h-6.7h-93.8l-74,138.9l66.5-0.4c0,0.1,0,0.1,0,0.1h111.1l-156,289.8H635l154.8-290.9h156l73.8-137.5H627.2z M923.7,118.8H767.7l-10.4,19.6L612.8,409.7h-76.6l126.6-235.2l29.4-54.6h-47.8c0,0,0,0,0-0.1l-129.6-1.1l34.1-63.5H645l0,0h312.8L923.7,118.8z"/>
  </g>
</svg>
